<svg width="28" height="42" viewBox="0 0 28 42" fill="none" xmlns="http://www.w3.org/2000/svg">
<path d="M3.61536 41.9999C2.61793 41.9999 1.76601 41.6467 1.05961 40.9402C0.353202 40.2338 0 39.3819 0 38.3845V3.61536C0 2.60511 0.349997 1.74998 1.04999 1.04999C1.74998 0.349997 2.60511 0 3.61536 0H22.4614C23.4589 0 24.3108 0.353202 25.0172 1.05961C25.7236 1.76601 26.0768 2.61793 26.0768 3.61536V9.93075C26.6255 10.0743 27.0832 10.3609 27.4499 10.7903C27.8165 11.2198 27.9999 11.7192 27.9999 12.2884V16.0576C27.9999 16.6268 27.8165 17.1262 27.4499 17.5557C27.0832 17.9852 26.6255 18.2717 26.0768 18.4153V38.3845C26.0768 39.3819 25.7236 40.2338 25.0172 40.9402C24.3108 41.6467 23.4589 41.9999 22.4614 41.9999H3.61536ZM3.61536 38.9999H22.4614C22.6409 38.9999 22.7884 38.9422 22.9038 38.8268C23.0192 38.7114 23.0769 38.564 23.0769 38.3845V3.61536C23.0769 3.43586 23.0192 3.28841 22.9038 3.17302C22.7884 3.05762 22.6409 2.99993 22.4614 2.99993H3.61536C3.43586 2.99993 3.28841 3.05762 3.17302 3.17302C3.05762 3.28841 2.99993 3.43586 2.99993 3.61536V38.3845C2.99993 38.564 3.05762 38.7114 3.17302 38.8268C3.28841 38.9422 3.43586 38.9999 3.61536 38.9999ZM2.99993 38.9999C2.99993 38.9999 2.99993 38.9422 2.99993 38.8268C2.99993 38.7114 2.99993 38.564 2.99993 38.3845V3.61536C2.99993 3.43586 2.99993 3.28841 2.99993 3.17302C2.99993 3.05762 2.99993 2.99993 2.99993 2.99993C2.99993 2.99993 2.99993 3.05762 2.99993 3.17302C2.99993 3.28841 2.99993 3.43586 2.99993 3.61536V38.3845C2.99993 38.564 2.99993 38.7114 2.99993 38.8268C2.99993 38.9422 2.99993 38.9999 2.99993 38.9999ZM13.0384 9.30764C13.541 9.30764 13.9615 9.13841 14.2999 8.79995C14.6384 8.4615 14.8076 8.04099 14.8076 7.53843C14.8076 7.03587 14.6384 6.61536 14.2999 6.2769C13.9615 5.93844 13.541 5.76921 13.0384 5.76921C12.5358 5.76921 12.1153 5.93844 11.7769 6.2769C11.4384 6.61536 11.2692 7.03587 11.2692 7.53843C11.2692 8.04099 11.4384 8.4615 11.7769 8.79995C12.1153 9.13841 12.5358 9.30764 13.0384 9.30764Z" fill="#D4AF37"/>
</svg>
