<svg width="39" height="34" viewBox="0 0 39 34" fill="none" xmlns="http://www.w3.org/2000/svg">
<path d="M0 33.7883V11.2884L14.9999 0L24.3652 7.06146C23.7627 7.17428 23.1973 7.34351 22.6691 7.56915C22.1409 7.79479 21.6332 8.08324 21.1461 8.43451L14.9999 3.74991L2.99993 12.7884V30.7884H11.1153C11.1153 30.8089 11.1153 30.8294 11.1153 30.8499C11.1153 30.8704 11.1153 30.8909 11.1153 30.9114V33.7883H0ZM15.5 33.7883V30.5609C15.5 29.9664 15.6557 29.4121 15.9673 28.898C16.2788 28.3839 16.6897 27.9691 17.1999 27.6538C18.6948 26.7666 20.2647 26.0993 21.9096 25.6518C23.5544 25.2044 25.2512 24.9807 26.9999 24.9807C28.7486 24.9807 30.4454 25.2044 32.0903 25.6518C33.7352 26.0993 35.305 26.7666 36.7999 27.6538C37.3102 27.9691 37.7211 28.3839 38.0326 28.898C38.3441 29.4121 38.4999 29.9664 38.4999 30.5609V33.7883H15.5ZM18.6845 30.7884H35.3154V30.2499C34.0461 29.5191 32.7134 28.9582 31.3173 28.5672C29.9211 28.1761 28.482 27.9806 26.9999 27.9806C25.5179 27.9806 24.0788 28.1761 22.6826 28.5672C21.2864 28.9582 19.9537 29.5191 18.6845 30.2499V30.7884ZM27.0022 21.8845C25.4751 21.8845 24.1762 21.35 23.1057 20.281C22.0352 19.212 21.5 17.9139 21.5 16.3868C21.5 14.8596 22.0345 13.5608 23.1035 12.4903C24.1725 11.4198 25.4705 10.8845 26.9977 10.8845C28.5248 10.8845 29.8236 11.419 30.8941 12.488C31.9646 13.557 32.4999 14.8551 32.4999 16.3822C32.4999 17.9094 31.9654 19.2082 30.8964 20.2787C29.8274 21.3492 28.5293 21.8845 27.0022 21.8845ZM26.9999 18.8845C27.6948 18.8845 28.2852 18.6416 28.7711 18.1557C29.257 17.6698 29.5 17.0794 29.5 16.3845C29.5 15.6896 29.257 15.0992 28.7711 14.6133C28.2852 14.1274 27.6948 13.8845 26.9999 13.8845C26.305 13.8845 25.7147 14.1274 25.2287 14.6133C24.7428 15.0992 24.4999 15.6896 24.4999 16.3845C24.4999 17.0794 24.7428 17.6698 25.2287 18.1557C25.7147 18.6416 26.305 18.8845 26.9999 18.8845Z" fill="#D4AF37"/>
</svg>
