<?xml version="1.0" encoding="UTF-8" standalone="no"?>
<!-- Created with Inkscape (http://www.inkscape.org/) -->

<svg
   version="1.1"
   id="svg7170"
   xml:space="preserve"
   width="682.66669"
   height="682.66669"
   viewBox="0 0 682.66669 682.66669"
   xmlns="http://www.w3.org/2000/svg"
   xmlns:svg="http://www.w3.org/2000/svg"><defs
     id="defs7174"><clipPath
       clipPathUnits="userSpaceOnUse"
       id="clipPath7184"><path
         d="M 0,512 H 512 V 0 H 0 Z"
         id="path7182" /></clipPath><clipPath
       clipPathUnits="userSpaceOnUse"
       id="clipPath7218"><path
         d="M 0,512 H 512 V 0 H 0 Z"
         id="path7216" /></clipPath><clipPath
       clipPathUnits="userSpaceOnUse"
       id="clipPath7234"><path
         d="M 0,512 H 512 V 0 H 0 Z"
         id="path7232" /></clipPath></defs><g
     id="g7176"
     transform="matrix(1.3333333,0,0,-1.3333333,0,682.66667)"><g
       id="g7178"><g
         id="g7180"
         clip-path="url(#clipPath7184)"><g
           id="g7186"
           transform="translate(7.5,117.6934)"><path
             d="M 0,0 H 497"
             style="fill:none;stroke:#000000;stroke-width:15;stroke-linecap:round;stroke-linejoin:round;stroke-miterlimit:10;stroke-dasharray:none;stroke-opacity:1"
             id="path7188" /></g></g></g><g
       id="g7190"
       transform="translate(169.2939,120.1963)"><path
         d="M 0,0 V 33.614"
         style="fill:none;stroke:#000000;stroke-width:15;stroke-linecap:round;stroke-linejoin:round;stroke-miterlimit:10;stroke-dasharray:none;stroke-opacity:1"
         id="path7192" /></g><g
       id="g7194"
       transform="translate(342.7061,120.1963)"><path
         d="M 0,0 V 33.614"
         style="fill:none;stroke:#000000;stroke-width:15;stroke-linecap:round;stroke-linejoin:round;stroke-miterlimit:10;stroke-dasharray:none;stroke-opacity:1"
         id="path7196" /></g><g
       id="g7198"
       transform="translate(207.5127,184.6787)"><path
         d="M 0,0 V 30.594"
         style="fill:none;stroke:#000000;stroke-width:15;stroke-linecap:round;stroke-linejoin:round;stroke-miterlimit:10;stroke-dasharray:none;stroke-opacity:1"
         id="path7200" /></g><g
       id="g7202"
       transform="translate(304.4873,184.6787)"><path
         d="M 0,0 V 30.594"
         style="fill:none;stroke:#000000;stroke-width:15;stroke-linecap:round;stroke-linejoin:round;stroke-miterlimit:10;stroke-dasharray:none;stroke-opacity:1"
         id="path7204" /></g><path
       d="m 353.535,215.272 h -195.07 v 44.652 h 195.07 z"
       style="fill:none;stroke:#000000;stroke-width:15;stroke-linecap:round;stroke-linejoin:round;stroke-miterlimit:10;stroke-dasharray:none;stroke-opacity:1"
       id="path7206" /><g
       id="g7208"
       transform="translate(272,154.2676)"><path
         d="M 0,0 H -136.349 V 30.411 H 104.349 L 104.349,0 H 40"
         style="fill:none;stroke:#000000;stroke-width:15;stroke-linecap:round;stroke-linejoin:round;stroke-miterlimit:10;stroke-dasharray:none;stroke-opacity:1"
         id="path7210" /></g><g
       id="g7212"><g
         id="g7214"
         clip-path="url(#clipPath7218)"><path
           d="m 487.5,117.693 h -79 v 29.785 h 79 z"
           style="fill:none;stroke:#000000;stroke-width:15;stroke-linecap:round;stroke-linejoin:round;stroke-miterlimit:10;stroke-dasharray:none;stroke-opacity:1"
           id="path7220" /></g></g><path
       d="m 467.5,147.479 h -39 v 29.786 h 39 z"
       style="fill:none;stroke:#000000;stroke-width:15;stroke-linecap:round;stroke-linejoin:round;stroke-miterlimit:10;stroke-dasharray:none;stroke-opacity:1"
       id="path7222" /><g
       id="g7224"
       transform="translate(448,178.8652)"><path
         d="M 0,0 V 173.828"
         style="fill:none;stroke:#000000;stroke-width:15;stroke-linecap:round;stroke-linejoin:round;stroke-miterlimit:10;stroke-dasharray:none;stroke-opacity:1"
         id="path7226" /></g><g
       id="g7228"><g
         id="g7230"
         clip-path="url(#clipPath7234)"><g
           id="g7236"
           transform="translate(448,352.6934)"><path
             d="M 0,0 V 0 C -12.012,0 -21.75,9.737 -21.75,21.75 V 61 h 43.5 V 21.75 C 21.75,9.737 12.012,0 0,0 Z"
             style="fill:none;stroke:#000000;stroke-width:15;stroke-linecap:round;stroke-linejoin:round;stroke-miterlimit:10;stroke-dasharray:none;stroke-opacity:1"
             id="path7238" /></g><g
           id="g7240"
           transform="translate(413.333,413.6934)"><path
             d="M 0,0 H 69.334 L 47.579,21.754 c -7.11,7.11 -18.638,7.118 -25.757,0.016 z"
             style="fill:none;stroke:#000000;stroke-width:15;stroke-linecap:round;stroke-linejoin:round;stroke-miterlimit:10;stroke-dasharray:none;stroke-opacity:1"
             id="path7242" /></g><g
           id="g7244"
           transform="translate(504.5,329.7812)"><path
             d="m 0,0 c -28.714,-1.758 -51.486,-23.33 -55.867,-50.595 -7.876,9.429 -19.97,15.122 -33.173,14.315 -7.431,-0.455 -14.259,-2.916 -20.002,-6.816 -4.27,26.916 -29.13,45.809 -56.39,42.449 -11.8,-1.456 -22.143,-6.855 -29.898,-14.704 -6.45,10.733 -18.799,17.251 -32.027,15.622 -3.885,-0.48 -7.525,-1.624 -10.822,-3.301 -1.024,16.265 -13.212,30.21 -29.981,32.807 -19.367,3 -37.5,-10.268 -40.5,-29.636 -0.194,-1.254 -0.318,-2.502 -0.378,-3.742 -5.394,3.28 -11.503,5.582 -18.13,6.609 -11.94,1.849 -23.541,-0.739 -33.134,-6.533"
             style="fill:none;stroke:#000000;stroke-width:15;stroke-linecap:round;stroke-linejoin:round;stroke-miterlimit:10;stroke-dasharray:none;stroke-opacity:1"
             id="path7246" /></g><g
           id="g7248"
           transform="translate(74.5957,117.6934)"><path
             d="M 0,0 V 312"
             style="fill:none;stroke:#000000;stroke-width:15;stroke-linecap:round;stroke-linejoin:round;stroke-miterlimit:10;stroke-dasharray:none;stroke-opacity:1"
             id="path7250" /></g><g
           id="g7252"
           transform="translate(58.5547,489.3857)"><path
             d="m 0,0 c 4.963,1.182 10.142,1.808 15.466,1.808 36.738,0 66.52,-29.783 66.52,-66.521 v -106.808 c 0,-36.738 -29.782,-66.52 -66.52,-66.52 -36.738,0 -66.521,29.782 -66.521,66.52 v 106.808 c 0,17.815 7.003,33.994 18.407,45.935"
             style="fill:none;stroke:#000000;stroke-width:15;stroke-linecap:round;stroke-linejoin:round;stroke-miterlimit:10;stroke-dasharray:none;stroke-opacity:1"
             id="path7254" /></g><g
           id="g7256"
           transform="translate(75.0313,360.5088)"><path
             d="M 0,0 31.201,31.202"
             style="fill:none;stroke:#000000;stroke-width:15;stroke-linecap:round;stroke-linejoin:round;stroke-miterlimit:10;stroke-dasharray:none;stroke-opacity:1"
             id="path7258" /></g><g
           id="g7260"
           transform="translate(74.5957,308.5088)"><path
             d="M 0,0 -31.202,31.202"
             style="fill:none;stroke:#000000;stroke-width:15;stroke-linecap:round;stroke-linejoin:round;stroke-miterlimit:10;stroke-dasharray:none;stroke-opacity:1"
             id="path7262" /></g><g
           id="g7264"
           transform="translate(366.3848,471.1152)"><path
             d="m 0,0 c 0,-18.438 -14.946,-33.385 -33.385,-33.385 -18.438,0 -33.385,14.947 -33.385,33.385 0,18.437 14.947,33.385 33.385,33.385 C -14.946,33.385 0,18.437 0,0 Z"
             style="fill:none;stroke:#000000;stroke-width:15;stroke-linecap:round;stroke-linejoin:round;stroke-miterlimit:10;stroke-dasharray:none;stroke-opacity:1"
             id="path7266" /></g><g
           id="g7268"
           transform="translate(470.75,65.75)"><path
             d="M 0,0 H 33.75"
             style="fill:none;stroke:#000000;stroke-width:15;stroke-linecap:round;stroke-linejoin:round;stroke-miterlimit:10;stroke-dasharray:none;stroke-opacity:1"
             id="path7270" /></g><g
           id="g7272"
           transform="translate(7.5,65.75)"><path
             d="M 0,0 H 422"
             style="fill:none;stroke:#000000;stroke-width:15;stroke-linecap:round;stroke-linejoin:round;stroke-miterlimit:10;stroke-dasharray:none;stroke-opacity:1"
             id="path7274" /></g><g
           id="g7276"
           transform="translate(23.2959,29.125)"><path
             d="M 0,0 C 9.651,0 9.668,15 0,15 -9.652,15 -9.668,0 0,0"
             style="fill:#000000;fill-opacity:1;fill-rule:nonzero;stroke:none"
             id="path7278" /></g><g
           id="g7280"
           transform="translate(69.8369)"><path
             d="M 0,0 C 9.651,0 9.667,15 0,15 -9.652,15 -9.668,0 0,0"
             style="fill:#000000;fill-opacity:1;fill-rule:nonzero;stroke:none"
             id="path7282" /></g><g
           id="g7284"
           transform="translate(116.377,29.125)"><path
             d="M 0,0 C 9.652,0 9.668,15 0,15 -9.651,15 -9.667,0 0,0"
             style="fill:#000000;fill-opacity:1;fill-rule:nonzero;stroke:none"
             id="path7286" /></g><g
           id="g7288"
           transform="translate(162.918)"><path
             d="M 0,0 C 9.652,0 9.668,15 0,15 -9.651,15 -9.667,0 0,0"
             style="fill:#000000;fill-opacity:1;fill-rule:nonzero;stroke:none"
             id="path7290" /></g><g
           id="g7292"
           transform="translate(209.459,29.125)"><path
             d="M 0,0 C 9.652,0 9.668,15 0,15 -9.651,15 -9.668,0 0,0"
             style="fill:#000000;fill-opacity:1;fill-rule:nonzero;stroke:none"
             id="path7294" /></g><g
           id="g7296"
           transform="translate(256)"><path
             d="M 0,0 C 9.651,0 9.668,15 0,15 -9.651,15 -9.668,0 0,0"
             style="fill:#000000;fill-opacity:1;fill-rule:nonzero;stroke:none"
             id="path7298" /></g><g
           id="g7300"
           transform="translate(302.541,29.125)"><path
             d="M 0,0 C 9.651,0 9.668,15 0,15 -9.652,15 -9.668,0 0,0"
             style="fill:#000000;fill-opacity:1;fill-rule:nonzero;stroke:none"
             id="path7302" /></g><g
           id="g7304"
           transform="translate(349.082)"><path
             d="M 0,0 C 9.651,0 9.667,15 0,15 -9.652,15 -9.668,0 0,0"
             style="fill:#000000;fill-opacity:1;fill-rule:nonzero;stroke:none"
             id="path7306" /></g><g
           id="g7308"
           transform="translate(395.623,29.125)"><path
             d="M 0,0 C 9.651,0 9.667,15 0,15 -9.652,15 -9.668,0 0,0"
             style="fill:#000000;fill-opacity:1;fill-rule:nonzero;stroke:none"
             id="path7310" /></g><g
           id="g7312"
           transform="translate(442.1631)"><path
             d="M 0,0 C 9.652,0 9.668,15 0,15 -9.651,15 -9.667,0 0,0"
             style="fill:#000000;fill-opacity:1;fill-rule:nonzero;stroke:none"
             id="path7314" /></g><g
           id="g7316"
           transform="translate(488.7041,29.125)"><path
             d="M 0,0 C 9.652,0 9.668,15 0,15 -9.651,15 -9.668,0 0,0"
             style="fill:#000000;fill-opacity:1;fill-rule:nonzero;stroke:none"
             id="path7318" /></g></g></g></g></svg>
